Coordinates
version=1
nRows=24
nColumns=24
inDegrees=yes

Units are S.I. units (second, meters, Newtons, ...)
Angles are in degrees.

endheader
time	pelvis_tilt	pelvis_list	pelvis_rotation	pelvis_tx	pelvis_ty	pelvis_tz	hip_flexion_r	hip_adduction_r	hip_rotation_r	knee_angle_r	ankle_angle_r	subtalar_angle_r	mtp_angle_r	hip_flexion_l	hip_adduction_l	hip_rotation_l	knee_angle_l	ankle_angle_l	subtalar_angle_l	mtp_angle_l	lumbar_extension	lumbar_bending	lumbar_rotation
      1.25000000	      6.54077631	      0.78808980	      2.03153736	      0.00967037	      0.91506400	     -0.01114832	     22.56526741	     -0.99671009	     -6.83178499	    -36.81983555	     18.61403615	     -8.19832663	     35.04161560	    -21.09587305	      4.91497886	     -2.35776866	      0.69255536	     16.44814576	      4.57871809	     24.62568527	    -19.74866880	     -2.78411132	     -7.33407911
      1.25500000	      6.64169895	      0.79116010	      2.31039254	      0.01727246	      0.91446200	     -0.01114518	     22.34647193	     -1.03222466	     -7.16648053	    -34.49873354	     18.47090727	     -7.52099613	     35.49414812	    -21.77037320	      4.75626813	     -2.58286231	      0.77698542	     16.53639136	      5.38919964	     24.91551281	    -19.90355065	     -2.76622132	     -7.64751473
      1.26000000	      6.60063126	      0.83714762	      2.67912514	      0.02483952	      0.91364894	     -0.01122270	     22.24303702	     -1.14105358	     -7.57022970	    -32.17321655	     18.33288926	     -6.81984682	     35.78045086	    -22.21540495	      4.60395383	     -2.62866086	      0.71423904	     16.73756675	      6.07561708	     25.13517341	    -19.91163266	     -2.77839664	     -8.06423443
      1.26500000	      6.69663634	      0.81819561	      2.97528598	      0.03258698	      0.91299743	     -0.01125047	     21.92168615	     -1.14779956	     -7.97528308	    -29.77291190	     18.09490267	     -6.07997451	     36.33335411	    -22.85353681	      4.40508077	     -2.82099082	      0.72974026	     16.80381385	      6.82995505	     25.48138223	    -20.04471305	     -2.72511573	     -8.31616334
      1.27000000	      6.68396628	      0.86328538	      3.37517707	      0.04030619	      0.91218907	     -0.01130636	     21.68476812	     -1.24319883	     -8.44257659	    -27.40563437	     17.90917295	     -5.32877615	     36.64415236	    -23.30049895	      4.21952514	     -2.83553010	      0.60205716	     16.99639283	      7.51428978	     25.72931341	    -20.07234963	     -2.73023377	     -8.75897315
      1.27500000	      6.77150717	      0.86354642	      3.73556806	      0.04818208	      0.91149535	     -0.01131506	     21.28467800	     -1.26385926	     -8.92439061	    -25.01838333	     17.65662374	     -4.52839872	     37.01627828	    -23.87768173	      3.99240644	     -2.93715888	      0.50838801	     17.10626769	      8.20824767	     26.01790425	    -20.19053696	     -2.68932623	     -9.10940569
      1.28000000	      6.90643680	      0.83733311	      4.03489651	      0.05618198	      0.91083628	     -0.01119460	     20.79910984	     -1.20586952	     -9.34532608	    -22.63243415	     17.17561538	     -3.97996009	     38.56860232	    -24.50881997	      3.75049154	     -3.17328077	      0.42021915	     17.07820243	      8.93058628	     27.07371083	    -20.34439459	     -2.63735950	     -9.35143422
      1.28500000	      6.99852256	      0.86367062	      4.43661748	      0.06422483	      0.91011828	     -0.01120537	     20.33478252	     -1.24290619	     -9.89505383	    -20.35424555	     16.91890090	     -3.09539130	     38.73349603	    -25.04942840	      3.51349327	     -3.16965317	      0.23120208	     17.17716438	      9.48681392	     27.27563959	    -20.45392198	     -2.61335626	     -9.75680841
      1.29000000	      7.09379115	      0.83220246	      4.82675921	      0.07242014	      0.90937404	     -0.01113426	     19.83503127	     -1.18234442	    -10.39666890	    -18.12343211	     16.59779863	     -2.39783587	     38.91015783	    -25.60082733	      3.20596100	     -3.19952836	      0.05622592	     17.30067675	     10.12856392	     27.54443580	    -20.54517043	     -2.53310992	    -10.11487210
      1.29500000	      7.34627622	      0.80253012	      5.13394541	      0.08073706	      0.90881479	     -0.01095822	     19.15461722	     -1.07588081	    -10.86095599	    -15.98923949	     16.20964334	     -1.64298281	     39.29064719	    -26.33029339	      2.91773866	     -3.38718553	     -0.11432474	     17.28054695	     10.78745889	     28.03888881	    -20.79630047	     -2.46398560	    -10.34575086
      1.30000000	      7.43883572	      0.76041618	      5.54194131	      0.08914111	      0.90805146	     -0.01082323	     18.63094524	     -0.96926254	    -11.32306946	    -13.98254810	     15.83973763	     -1.18400978	     39.50066519	    -26.83178450	      2.56802791	     -3.39627358	     -0.38854120	     17.37725530	     11.35914870	     28.43136831	    -20.86303946	     -2.37227117	    -10.75205347
      1.30500000	      7.73987490	      0.71230308	      5.83897676	      0.09765779	      0.90754185	     -0.01056668	     17.89210663	     -0.80213456	    -11.74370643	    -12.12908937	     15.43176715	     -0.58266793	     39.90494609	    -27.56862423	      2.23819862	     -3.62083448	     -0.65314580	     17.29460282	     11.97249319	     29.12228006	    -21.14483051	     -2.28129283	    -10.96649375
      1.31000000	      7.86952071	      0.63514708	      6.17450999	      0.10628717	      0.90680804	     -0.01032028	     17.34961636	     -0.61320136	    -12.08939193	    -10.45509742	     14.94318299	     -0.30341873	     40.98763321	    -28.08714977	      1.86393513	     -3.72781868	     -0.96670832	     17.15618102	     12.46094207	     31.12886353	    -21.21927629	     -2.16595711	    -11.21515002
      1.31500000	      8.09848778	      0.56343786	      6.50508027	      0.11495052	      0.90621769	     -0.01006068	     16.71214294	     -0.40745331	    -12.39995207	     -8.97575976	     14.56480110	     -0.10368690	     41.02749390	    -28.69867758	      1.47856382	     -3.77352675	     -1.31577477	     17.08624166	     12.89440108	     31.48636745	    -21.40308419	     -2.04366666	    -11.47813206
      1.32000000	      8.28714526	      0.41809016	      6.81043253	      0.12379990	      0.90557493	     -0.00978017	     16.14640772	     -0.12112375	    -12.68774047	     -7.71761435	     14.20863476	      0.07601401	     41.19137101	    -29.24180962	      1.02852330	     -3.93655104	     -1.70989007	     16.98586947	     13.41320478	     32.41972050	    -21.50820314	     -1.85110320	    -11.65910087
      1.32500000	      8.52019737	      0.31942776	      7.11734803	      0.13258830	      0.90502130	     -0.00948602	     15.56175268	      0.12717147	    -12.86202177	     -6.68052879	     13.86600960	      0.01855385	     41.27538491	    -29.79387356	      0.60511859	     -3.98022211	     -2.16903102	     16.86052967	     13.87686537	     33.28793799	    -21.67634156	     -1.70069838	    -11.83927577
      1.33000000	      8.74752916	      0.19126229	      7.41244424	      0.14146057	      0.90449168	     -0.00919098	     15.02265250	      0.40796912	    -13.00177512	     -5.88586228	     13.56582539	     -0.17864238	     41.32475021	    -30.28731079	      0.15449276	     -4.09248939	     -2.72606489	     16.69218153	     14.28957007	     34.23913614	    -21.82427011	     -1.51600934	    -12.04258902
      1.33500000	      8.96145157	      0.02449835	      7.70076266	      0.15041219	      0.90397164	     -0.00889930	     14.52593213	      0.72914857	    -13.08182842	     -5.30103083	     13.29450134	     -0.49903370	     41.37735898	    -30.74055502	     -0.33935281	     -4.18222007	     -3.31567265	     16.46823393	     14.70622539	     35.52589484	    -21.94109595	     -1.29015396	    -12.20260306
      1.34000000	      9.03930675	     -0.14812486	      7.97898270	      0.15936905	      0.90333145	     -0.00865216	     14.25245331	      1.01935662	    -13.16017458	     -5.01733888	     13.03034840	     -0.81842424	     41.55904266	    -30.98005041	     -0.81701334	     -4.18497133	     -4.00836740	     16.08673121	     14.86176828	     38.26310271	    -21.90418159	     -1.06983505	    -12.31293153
      1.34500000	      9.24704363	     -0.37498031	      8.23207769	      0.16839136	      0.90288552	     -0.00837853	     13.84339106	      1.40051629	    -13.13923768	     -4.87040954	     12.76217155	     -1.36875434	     41.49917473	    -31.33436041	     -1.35814679	     -4.24455507	     -4.75652768	     15.86113944	     15.15662294	     38.94879123	    -21.99425787	     -0.77743753	    -12.38215047
      1.35000000	      9.36773091	     -0.57650587	      8.49345341	      0.17737211	      0.90240154	     -0.00812785	     13.59836253	      1.72342422	    -13.14785045	     -4.99859121	     12.50760518	     -1.91895169	     41.57059271	    -31.51135883	     -1.87750743	     -4.24802350	     -5.62823229	     15.42850194	     15.38103976	     41.38068927	    -21.99696021	     -0.51671745	    -12.47792197
      1.35500000	      9.54932710	     -0.83318999	      8.71277250	      0.18638053	      0.90202346	     -0.00784304	     13.31308140	      2.12766247	    -13.04438791	     -5.27129333	     12.21559494	     -2.71098107	     41.51424588	    -31.71724674	     -2.43875647	     -4.26935878	     -6.57062160	     15.10654621	     15.62138997	     42.29597327	    -22.05360948	     -0.19516046	    -12.47387309
      1.36000000	      9.60985745	     -1.06277952	      8.95637003	      0.19532944	      0.90158540	     -0.00760809	     13.21681054	      2.45712524	    -13.00596756	     -5.76752692	     11.88007613	     -3.35389267	     41.62991189	    -31.69114572	     -2.97530113	     -4.17309858	     -7.66439326	     14.60169152	     15.67785972	     44.90416813	    -21.98622184	      0.09179280	    -12.54885481
      1.36500000	      9.71073257	     -1.33142191	      9.13750115	      0.20426011	      0.90122043	     -0.00726907	     13.11216843	      2.85724657	    -12.81534527	     -6.39305856	     11.50264284	     -4.32962590	     41.57373114	    -31.66165231	     -3.52973744	     -4.11165772	     -8.85055508	     14.19716295	     15.88489847	     45.80200203	    -21.96162751	      0.40790048	    -12.51232264
